<svg id="visual" viewBox="0 0 900 600" width="900" height="600" xmlns="http://www.w3.org/2000/svg" xmlns:xlink="http://www.w3.org/1999/xlink" version="1.1"><path d="M0 121L12.5 128C25 135 50 149 75 154C100 159 125 155 150 138C175 121 200 91 225 92C250 93 275 125 300 129C325 133 350 109 375 93C400 77 425 69 450 66C475 63 500 65 525 67C550 69 575 71 600 83C625 95 650 117 675 129C700 141 725 143 750 149C775 155 800 165 825 169C850 173 875 171 887.5 170L900 169L900 0L887.5 0C875 0 850 0 825 0C800 0 775 0 750 0C725 0 700 0 675 0C650 0 625 0 600 0C575 0 550 0 525 0C500 0 475 0 450 0C425 0 400 0 375 0C350 0 325 0 300 0C275 0 250 0 225 0C200 0 175 0 150 0C125 0 100 0 75 0C50 0 25 0 12.5 0L0 0Z" fill="#b8e4d6"></path><path d="M0 169L12.5 176C25 183 50 197 75 217C100 237 125 263 150 262C175 261 200 233 225 227C250 221 275 237 300 231C325 225 350 197 375 187C400 177 425 185 450 180C475 175 500 157 525 161C550 165 575 191 600 204C625 217 650 217 675 223C700 229 725 241 750 246C775 251 800 249 825 253C850 257 875 267 887.5 272L900 277L900 167L887.5 168C875 169 850 171 825 167C800 163 775 153 750 147C725 141 700 139 675 127C650 115 625 93 600 81C575 69 550 67 525 65C500 63 475 61 450 64C425 67 400 75 375 91C350 107 325 131 300 127C275 123 250 91 225 90C200 89 175 119 150 136C125 153 100 157 75 152C50 147 25 133 12.5 126L0 119Z" fill="#a3dbc9"></path><path d="M0 409L12.5 397C25 385 50 361 75 363C100 365 125 393 150 409C175 425 200 429 225 440C250 451 275 469 300 463C325 457 350 427 375 421C400 415 425 433 450 409C475 385 500 319 525 313C550 307 575 361 600 396C625 431 650 447 675 457C700 467 725 471 750 472C775 473 800 471 825 476C850 481 875 493 887.5 499L900 505L900 275L887.5 270C875 265 850 255 825 251C800 247 775 249 750 244C725 239 700 227 675 221C650 215 625 215 600 202C575 189 550 163 525 159C500 155 475 173 450 178C425 183 400 175 375 185C350 195 325 223 300 229C275 235 250 219 225 225C200 231 175 259 150 260C125 261 100 235 75 215C50 195 25 181 12.5 174L0 167Z" fill="#8dceb8"></path><path d="M0 601L12.5 601C25 601 50 601 75 601C100 601 125 601 150 601C175 601 200 601 225 601C250 601 275 601 300 601C325 601 350 601 375 601C400 601 425 601 450 601C475 601 500 601 525 601C550 601 575 601 600 601C625 601 650 601 675 601C700 601 725 601 750 601C775 601 800 601 825 601C850 601 875 601 887.5 601L900 601L900 503L887.5 497C875 491 850 479 825 474C800 469 775 471 750 470C725 469 700 465 675 455C650 445 625 429 600 394C575 359 550 305 525 311C500 317 475 383 450 407C425 431 400 413 375 419C350 425 325 455 300 461C275 467 250 449 225 438C200 427 175 423 150 407C125 391 100 363 75 361C50 359 25 383 12.5 395L0 407Z" fill="#77bba3"></path></svg>